# xmcd
#
# Track frame offsets:
#	150
#	32745
#	58383
#	86672
#	121058
#
# Disc length: 2045 seconds
#
# Revision: 1
# Processed by: cddbd v1.5PL3 Copyright (c) Steve Scherf et al.
# Submitted via: CDex 1.50Beta5
#
DISCID=3d07fb05
DTITLE=中島美嘉 - Love Addict
DYEAR=2003
DGENRE=Pop
TTITLE0=Love Addict
TTITLE1=Be in Silence
TTITLE2=aroma(live)
TTITLE3=Love Addict(Yukihiro Fukutomi Remix)
TTITLE4=Love Addict(Instrumental)
EXTD=
EXTT0=
EXTT1=
EXTT2=
EXTT3=
EXTT4=
PLAYORDER=
